<svg width="44" height="44" fill="none" xmlns="http://www.w3.org/2000/svg"><rect x=".193" y=".79" width="43" height="43" rx="10" fill="#2E2E2E"/><path d="M27.885 22.416c-.01-1.803.829-3.163 2.525-4.165-.948-1.322-2.384-2.049-4.276-2.19-1.79-.137-3.75 1.016-4.468 1.016-.759 0-2.493-.968-3.857-.968-2.816.043-5.809 2.185-5.809 6.542 0 1.288.242 2.618.726 3.988.647 1.803 2.979 6.221 5.412 6.15 1.272-.03 2.171-.878 3.827-.878 1.606 0 2.438.878 3.857.878 2.454-.035 4.564-4.051 5.178-5.86-3.292-1.51-3.115-4.42-3.115-4.513Zm-2.857-8.065c1.378-1.592 1.253-3.04 1.213-3.561-1.218.068-2.626.806-3.428 1.713-.883.973-1.403 2.176-1.291 3.532 1.315.098 2.517-.56 3.506-1.684Z" fill="#fff"/></svg>