<svg width="84" height="65" fill="none" xmlns="http://www.w3.org/2000/svg"><path fill-rule="evenodd" clip-rule="evenodd" d="M1.376 48.283a1.143 1.143 0 0 0-.232 1.654l11.71 14.6a1.28 1.28 0 0 0 1.738.221l12.187-8.863a1.143 1.143 0 0 0 .233-1.654L15.3 39.641a1.281 1.281 0 0 0-1.737-.221L1.376 48.283Zm18.533 8.746c1.197 0 2.168-.924 2.168-2.065 0-1.14-.97-2.064-2.168-2.064-1.198 0-2.169.924-2.169 2.064 0 1.14.97 2.065 2.169 2.065Z" fill="#2f772d"/><path d="M53.056 1.28c-4.647 2.064-7.435.294-7.435.294l3.025 6.912c.214-.082.448-.128.693-.128h6.195c.145 0 .285.016.42.046l2.988-6.83s-2.747-1.69-5.886-.295Z" fill="#2f772d"/><path d="M51.153 23.192c-.311-.285-.467-.681-.467-1.189 0-.544.162-.978.486-1.3.337-.321.784-.513 1.341-.575v3.75c-.583-.173-1.036-.402-1.36-.686Z" fill="#2f772d"/><path d="M55.117 29.152c-.324.346-.77.563-1.34.65v-3.77c.582.174 1.03.403 1.34.687.324.273.486.656.486 1.151 0 .496-.162.923-.486 1.282Z" fill="#2f772d"/><path fill-rule="evenodd" clip-rule="evenodd" d="M36.965 31.53c.657-8.948 9.031-17.822 11.229-20.007a1.91 1.91 0 0 0 1.145.375h6.195c.352 0 .68-.093.96-.254 2.275 2.27 9.81 10.342 11.122 18.837.524 3.389.126 6.06-.915 8.11-.653.244-1.263.481-1.837.71.089-.115.17-.232.247-.35.764-1.19.963-2.718-.154-3.933-1.006-1.094-2.8-1.587-5.085-1.587-.876 0-1.906.123-2.968.276-.465.067-.926.137-1.396.21-.656.1-1.328.202-2.046.3-2.423.33-4.877.522-6.978.122-1.073-.204-2.262-.568-3.596-1.005-.297-.097-.602-.199-.913-.302a87.49 87.49 0 0 0-3.353-1.062 38.3 38.3 0 0 0-1.657-.44Zm20.387-2.026a3.358 3.358 0 0 0 .486-1.745c0-.817-.188-1.454-.563-1.912a3.235 3.235 0 0 0-1.38-1.021c-.545-.223-1.25-.434-2.119-.632v-4.01c.454.111.816.321 1.089.63.272.298.427.638.466 1.022h2.371c-.09-1.027-.486-1.832-1.185-2.414-.687-.594-1.6-.94-2.74-1.04v-1.504h-1.264v1.505c-1.218.11-2.203.507-2.954 1.188-.751.668-1.127 1.516-1.127 2.544 0 .817.188 1.46.563 1.93.39.471.856.818 1.4 1.04.544.21 1.25.421 2.118.632v4.085c-.531-.087-.94-.285-1.224-.595-.285-.321-.447-.724-.486-1.207h-2.371c0 1.016.376 1.832 1.127 2.451.752.62 1.736.985 2.954 1.096v1.504h1.263v-1.504c.842-.074 1.568-.297 2.177-.669.622-.37 1.088-.829 1.4-1.373Z" fill="#2f772d"/><path d="M26.724 52.604 16.81 40.215c3.098-3.245 5.577-6.784 12.082-7.964 6.506-1.18 12.702 2.36 17.349 3.245 4.647.885 10.532-.885 13.63-.885 8.675 0 4.028 7.669-4.646 6.784-8.675-.885-12.082.885-8.365 1.475 3.718.59 7.745 1.475 11.462.295 3.718-1.18 7.126-3.245 16.11-5.9 7.187-2.123 8.777-.098 8.674 1.18-6.196 3.54-19.95 11.327-25.403 14.159-6.816 3.54-5.576 4.13-14.56 1.475-7.188-2.124-13.941-1.868-16.42-1.475Z" fill="#2f772d"/><path d="M48.1 10.129c0-.49.415-.885.929-.885h6.815c.513 0 .93.396.93.885 0 .488-.417.885-.93.885H49.03c-.514 0-.93-.397-.93-.885Z" fill="#2f772d"/><defs><linearGradient id="a" x1="14.078" y1="39.178" x2="14.078" y2="65" gradientUnits="userSpaceOnUse"><stop stop-color="#E32223"/><stop offset="1" stop-color="#FD6C6D"/></linearGradient><linearGradient id="b" x1="52.406" y1=".728" x2="52.406" y2="39.301" gradientUnits="userSpaceOnUse"><stop stop-color="#FF7374"/><stop offset="1" stop-color="#E22123"/></linearGradient><linearGradient id="c" x1="52.406" y1=".728" x2="52.406" y2="39.301" gradientUnits="userSpaceOnUse"><stop stop-color="#FF7374"/><stop offset="1" stop-color="#E22123"/></linearGradient><linearGradient id="d" x1="52.406" y1=".728" x2="52.406" y2="39.301" gradientUnits="userSpaceOnUse"><stop stop-color="#FF7374"/><stop offset="1" stop-color="#E22123"/></linearGradient><linearGradient id="e" x1="52.406" y1=".728" x2="52.406" y2="39.301" gradientUnits="userSpaceOnUse"><stop stop-color="#FF7374"/><stop offset="1" stop-color="#E22123"/></linearGradient><linearGradient id="f" x1="55.081" y1="33.935" x2="57.816" y2="51.827" gradientUnits="userSpaceOnUse"><stop stop-color="#E22123"/><stop offset="1" stop-color="#FF7374"/></linearGradient></defs></svg>